<svg xmlns="http://www.w3.org/2000/svg" viewBox="0 0 200 200" width="200" height="200">
  <defs>
    <linearGradient id="conservationGradient" x1="0%" y1="0%" x2="100%" y2="100%">
      <stop offset="0%" style="stop-color:#dc3545;stop-opacity:1" />
      <stop offset="100%" style="stop-color:#e83e8c;stop-opacity:1" />
    </linearGradient>
  </defs>
  
  <!-- Background -->
  <rect width="200" height="200" fill="url(#conservationGradient)"/>
  
  <!-- Heart -->
  <path d="M 100 60 Q 100 40 80 40 Q 60 40 60 60 Q 60 80 100 120 Q 140 80 140 60 Q 140 40 120 40 Q 100 40 100 60" fill="#ffffff"/>
  
  <!-- Bird -->
  <ellipse cx="60" cy="100" rx="8" ry="5" fill="#ffffff"/>
  <ellipse cx="65" cy="95" rx="3" ry="2" fill="#ffffff"/>
  <path d="M 55 95 L 50 90 L 45 95" stroke="#ffffff" stroke-width="2" fill="none"/>
  
  <!-- Butterfly -->
  <ellipse cx="140" cy="80" rx="6" ry="4" fill="#ffffff"/>
  <ellipse cx="150" cy="75" rx="4" ry="3" fill="#ffffff"/>
  <ellipse cx="130" cy="75" rx="4" ry="3" fill="#ffffff"/>
  <ellipse cx="140" cy="85" rx="6" ry="4" fill="#ffffff"/>
  <ellipse cx="150" cy="90" rx="4" ry="3" fill="#ffffff"/>
  <ellipse cx="130" cy="90" rx="4" ry="3" fill="#ffffff"/>
  
  <!-- Tree -->
  <rect x="95" y="140" width="10" height="30" fill="#8B4513"/>
  <circle cx="100" cy="120" r="20" fill="#228B22"/>
  <circle cx="85" cy="130" r="12" fill="#32CD32"/>
  <circle cx="115" cy="130" r="12" fill="#32CD32"/>
  
  <!-- Leaf -->
  <ellipse cx="160" cy="140" rx="8" ry="4" fill="#228B22"/>
  <path d="M 160 140 L 165 135" stroke="#228B22" stroke-width="2"/>
</svg> 