<svg xmlns="http://www.w3.org/2000/svg" viewBox="0 0 200 200" width="200" height="200">
  <defs>
    <linearGradient id="educationGradient" x1="0%" y1="0%" x2="100%" y2="100%">
      <stop offset="0%" style="stop-color:#007bff;stop-opacity:1" />
      <stop offset="100%" style="stop-color:#6610f2;stop-opacity:1" />
    </linearGradient>
  </defs>
  
  <!-- Background -->
  <rect width="200" height="200" fill="url(#educationGradient)"/>
  
  <!-- Books -->
  <rect x="50" y="120" width="20" height="30" fill="#e74c3c"/>
  <rect x="75" y="125" width="20" height="30" fill="#3498db"/>
  <rect x="100" y="130" width="20" height="30" fill="#2ecc71"/>
  <rect x="125" y="135" width="20" height="30" fill="#f39c12"/>
  
  <!-- Book spines -->
  <rect x="50" y="120" width="3" height="30" fill="#c0392b"/>
  <rect x="75" y="125" width="3" height="30" fill="#2980b9"/>
  <rect x="100" y="130" width="3" height="30" fill="#27ae60"/>
  <rect x="125" y="135" width="3" height="30" fill="#e67e22"/>
  
  <!-- Graduation cap -->
  <rect x="70" y="60" width="60" height="8" fill="#ffffff"/>
  <polygon points="70,60 100,40 130,60" fill="#ffffff"/>
  <rect x="95" y="68" width="10" height="20" fill="#ffffff"/>
  <circle cx="100" cy="88" r="8" fill="#ffffff"/>
  
  <!-- Lightbulb -->
  <circle cx="160" cy="80" r="15" fill="#FFD700"/>
  <rect x="155" y="95" width="10" height="15" fill="#FFD700"/>
  <circle cx="160" cy="110" r="3" fill="#FFD700"/>
  
  <!-- Plant -->
  <rect x="40" y="160" width="4" height="20" fill="#8B4513"/>
  <circle cx="42" cy="150" r="8" fill="#228B22"/>
  <circle cx="38" cy="145" r="5" fill="#32CD32"/>
  <circle cx="46" cy="145" r="5" fill="#32CD32"/>
</svg> 